HIERARCHY
ROOT hip
{
	OFFSET 0.000000 0.000000 0.000000 
	CHANNELS 6 Xposition Yposition Zposition Xrotation Zrotation Yrotation
	JOINT abdomen
	{
		OFFSET 0.000000 3.402643 0.000000 
		CHANNELS 3 Xrotation Zrotation Yrotation
		JOINT chest
		{
			OFFSET 0.000000 8.438565 -0.680529 
			CHANNELS 3 Xrotation Zrotation Yrotation
			JOINT neck
			{
				OFFSET 0.000000 10.207942 -0.272212 
				CHANNELS 3 Xrotation Zrotation Yrotation
				JOINT head
				{
					OFFSET 0.000000 3.130431 0.000000 
					CHANNELS 3 Xrotation Zrotation Yrotation
					End Site
					{
						OFFSET 0.000000 3.130435 0.000000 
					}
				}
			}
			JOINT lCollar
			{
				OFFSET 3.470700 6.669187 -0.816635 
				CHANNELS 3 Yrotation Zrotation Xrotation
				JOINT lShldr
				{
					OFFSET 3.198488 0.000000 0.000000 
					CHANNELS 3 Zrotation Yrotation Xrotation
					JOINT lForeArm
					{
						OFFSET 10.139888 0.000000 0.000000 
						CHANNELS 3 Yrotation Zrotation Xrotation
						JOINT lHand
						{
							OFFSET 8.370511 0.000000 0.000000 
							CHANNELS 3 Zrotation Yrotation Xrotation
							End Site
							{
								OFFSET 4.083176 0.000000 0.000000 
							}
						}
					}
				}
			}
			JOINT rCollar
			{
				OFFSET -3.470700 6.669187 -0.816635 
				CHANNELS 3 Yrotation Zrotation Xrotation
				JOINT rShldr
				{
					OFFSET -3.198488 0.000000 0.000000 
					CHANNELS 3 Zrotation Yrotation Xrotation
					JOINT rForeArm
					{
						OFFSET -10.139888 0.000000 0.000000 
						CHANNELS 3 Yrotation Zrotation Xrotation
						JOINT rHand
						{
							OFFSET -8.370511 0.000000 0.000000 
							CHANNELS 3 Zrotation Yrotation Xrotation
							End Site
							{
								OFFSET -4.083176 0.000000 0.000000 
							}
						}
					}
				}
			}
		}
	}
	JOINT lThigh
	{
		OFFSET 5.308129 -1.633274 1.361059 
		CHANNELS 3 Xrotation Zrotation Yrotation
		JOINT lShin
		{
			OFFSET -2.041588 -20.007561 0.000000 
			CHANNELS 3 Xrotation Zrotation Yrotation
			JOINT lFoot
			{
				OFFSET 0.000000 -19.190928 -1.224953 
				CHANNELS 3 Xrotation Yrotation Zrotation
				End Site
				{
					OFFSET 0.000000 -2.449906 4.627600 
				}
			}
		}
	}
	JOINT rThigh
	{
		OFFSET -5.308129 -1.633274 1.361059 
		CHANNELS 3 Xrotation Zrotation Yrotation
		JOINT rShin
		{
			OFFSET 2.041588 -20.007561 0.000000 
			CHANNELS 3 Xrotation Zrotation Yrotation
			JOINT rFoot
			{
				OFFSET 0.000000 -19.190928 -1.224953 
				CHANNELS 3 Xrotation Yrotation Zrotation
				End Site
				{
					OFFSET 0.000000 -2.449906 4.627600 
				}
			}
		}
	}
}
MOTION
Frames: 6
Frame Time: 0.033333
-69.133881 46.004833 -72.807648 14.052735 -14.765626 46.579540 6.494141 -0.029297 -0.839844 0.908203 6.699219 0.577311 8.554688 5.390625 24.306641 -3.388672 -22.490234 27.144701 2.802734 -1.943359 -0.087559 -84.687500 2.958984 0.390625 -64.052734 4.531250 67.197266 1.679688 16.855469 0.383693 2.275391 -4.228516 -0.009046 77.158203 -13.369142 -6.611329 60.087894 -3.095703 34.658730 -9.384766 4.423829 -0.868386 -41.542488 10.146575 0.055936 81.936722 1.757434 -3.789509 15.719085 4.548951 -13.638433 -48.294857 -3.875126 -17.227476 54.930660 -0.410190 2.721072 -16.917637 -14.388494 7.302518 
-68.900223 45.876736 -72.231819 13.710938 -14.599607 46.884769 6.669922 -0.117188 -0.498047 1.787109 6.513671 0.927734 8.027344 5.390625 24.306643 -3.388672 -22.490234 26.968922 2.802734 -1.943359 -0.087559 -84.707031 2.988281 -0.204567 -63.486328 4.677734 66.894531 0.927734 16.513672 0.214844 2.441406 -4.238281 -0.175060 77.529297 -11.591798 -6.593759 60.732422 -3.076172 34.160679 -9.560546 4.248047 -0.868417 -44.761852 9.989284 -1.126633 84.374191 2.120084 -4.096485 16.420874 4.176194 -13.716556 -47.504452 -3.143157 -17.284279 55.637413 -0.362987 2.929969 -18.181486 -15.091301 6.743021 
-68.659210 45.784340 -71.708755 13.349610 -14.423828 47.106945 6.845704 0.078125 0.097670 2.304688 6.162110 1.456126 7.490234 5.361328 24.130861 -3.037110 -22.138674 26.972658 2.978516 -1.767578 -0.087589 -84.443359 3.017578 -0.829562 -62.861332 4.687500 66.777344 0.351562 16.337891 0.048828 2.275391 -4.052734 -0.018841 77.958984 -9.960938 -6.290752 61.083988 -3.115234 34.209511 -9.560546 4.248047 -0.868417 -47.811253 9.442764 -2.001755 85.786324 2.080339 -4.007325 16.861237 3.735086 -13.083302 -46.673248 -2.625418 -16.910704 55.789124 -0.529052 3.201091 -19.076687 -16.411203 6.075252 
-68.413101 45.701908 -71.217003 13.007813 -14.248048 47.233925 7.011719 0.117188 0.654317 2.832031 5.634765 1.816406 6.962891 5.195313 24.151278 -2.861328 -21.611328 26.796871 3.154297 -1.591797 -0.097656 -84.228516 3.222656 -1.415465 -62.246098 4.541016 66.777344 0.000000 16.171875 0.000000 2.275391 -3.876953 -0.028637 78.183601 -8.164063 -5.977949 61.220699 -3.017578 34.687500 -9.560546 4.248047 -0.868417 -51.046665 8.924344 -3.228478 87.025406 2.275480 -3.863347 17.192320 3.176055 -13.198322 -45.826550 -2.274387 -16.832140 56.496067 -0.361196 2.968463 -19.609442 -16.833612 5.544217 
-68.156189 45.639759 -70.769012 12.822266 -14.062499 47.460938 7.187500 0.195313 1.035156 3.007812 5.107422 2.343750 6.611328 5.019434 24.171181 -2.685547 -21.435547 26.617525 3.154297 -1.416016 -0.107422 -84.072266 3.437500 -2.021484 -61.640625 4.648438 66.953125 0.000000 15.996095 0.000000 2.099609 -3.701171 -0.048828 78.193359 -6.542969 -5.576172 61.289063 -3.105469 35.752483 -9.560547 4.072266 -0.869141 -53.999268 8.573450 -3.769872 86.847130 2.099551 -3.844959 17.124084 2.754393 -12.931997 -45.150894 -2.137116 -16.684139 56.859882 -0.302581 3.208286 -20.124340 -17.080070 5.525868 
-67.882797 45.596111 -70.354362 12.656250 -13.720702 47.409794 7.353516 0.234375 1.591837 3.007812 4.755859 2.685547 6.425781 4.824219 24.014494 -2.685547 -21.259766 26.621092 3.330078 -1.064453 -0.117006 -83.994141 3.818360 -2.656250 -60.888672 4.697266 67.059746 0.166016 16.162109 0.048828 2.099609 -3.701171 -0.048828 78.173828 -5.087891 -5.039928 61.093746 -3.271484 36.894531 -9.541017 3.574219 -0.693359 -56.598068 8.056094 -4.210496 85.787041 2.080520 -3.988013 16.949984 2.777927 -12.940153 -44.428181 -2.117476 -17.007063 57.203560 -0.537048 3.266020 -20.555721 -17.355696 5.113286 
